<svg width="124" height="124" viewBox="0 0 124 124" fill="none" xmlns="http://www.w3.org/2000/svg">
<g clip-path="url(#clip0_1_2170)">
<rect width="124" height="124" fill="url(#paint0_linear_1_2170)"/>
<circle cx="62" cy="62" r="60.5" stroke="url(#paint1_linear_1_2170)" stroke-width="3"/>
<path d="M46 26C34.956 26 26 34.956 26 46V78C26 89.044 34.956 98 46 98H78C89.044 98 98 89.044 98 78V46C98 34.956 89.044 26 78 26H46ZM86 34C88.208 34 90 35.792 90 38C90 40.208 88.208 42 86 42C83.792 42 82 40.208 82 38C82 35.792 83.792 34 86 34ZM62 42C73.044 42 82 50.956 82 62C82 73.044 73.044 82 62 82C50.956 82 42 73.044 42 62C42 50.956 50.956 42 62 42ZM62 50C58.8174 50 55.7652 51.2643 53.5147 53.5147C51.2643 55.7652 50 58.8174 50 62C50 65.1826 51.2643 68.2348 53.5147 70.4853C55.7652 72.7357 58.8174 74 62 74C65.1826 74 68.2348 72.7357 70.4853 70.4853C72.7357 68.2348 74 65.1826 74 62C74 58.8174 72.7357 55.7652 70.4853 53.5147C68.2348 51.2643 65.1826 50 62 50Z" fill="#F9F6F6"/>
</g>
<defs>
<linearGradient id="paint0_linear_1_2170" x1="62" y1="0" x2="62" y2="124" gradientUnits="userSpaceOnUse">
<stop stop-color="#605195"/>
<stop offset="1" stop-color="#E07785"/>
</linearGradient>
<linearGradient id="paint1_linear_1_2170" x1="62" y1="0" x2="62" y2="124" gradientUnits="userSpaceOnUse">
<stop stop-color="#605195"/>
<stop offset="1" stop-color="#E07785"/>
</linearGradient>
<clipPath id="clip0_1_2170">
<rect width="124" height="124" rx="62" fill="white"/>
</clipPath>
</defs>
</svg>
