<svg width="39" height="39" viewBox="0 0 39 39" fill="none" xmlns="http://www.w3.org/2000/svg">
<path d="M10.8751 0C4.93028 0 0.109375 4.85117 0.109375 10.8333V28.1667C0.109375 34.1488 4.93028 39 10.8751 39H28.1004C34.0452 39 38.8661 34.1488 38.8661 28.1667V10.8333C38.8661 4.85117 34.0452 0 28.1004 0H10.8751ZM32.4067 4.33333C33.5952 4.33333 34.5598 5.304 34.5598 6.5C34.5598 7.696 33.5952 8.66667 32.4067 8.66667C31.2181 8.66667 30.2535 7.696 30.2535 6.5C30.2535 5.304 31.2181 4.33333 32.4067 4.33333ZM19.4878 8.66667C25.4326 8.66667 30.2535 13.5178 30.2535 19.5C30.2535 25.4822 25.4326 30.3333 19.4878 30.3333C13.5429 30.3333 8.72199 25.4822 8.72199 19.5C8.72199 13.5178 13.5429 8.66667 19.4878 8.66667ZM19.4878 13C17.7746 13 16.1316 13.6848 14.9202 14.9038C13.7088 16.1228 13.0283 17.7761 13.0283 19.5C13.0283 21.2239 13.7088 22.8772 14.9202 24.0962C16.1316 25.3152 17.7746 26 19.4878 26C21.2009 26 22.8439 25.3152 24.0553 24.0962C25.2667 22.8772 25.9472 21.2239 25.9472 19.5C25.9472 17.7761 25.2667 16.1228 24.0553 14.9038C22.8439 13.6848 21.2009 13 19.4878 13Z" fill="#F9F6F6"/>
</svg>
