<svg width="124" height="124" viewBox="0 0 124 124" fill="none" xmlns="http://www.w3.org/2000/svg">
<g clip-path="url(#clip0_1_2157)">
<circle cx="62" cy="62" r="60.5" stroke="url(#paint0_linear_1_2157)" stroke-width="3"/>
<path d="M102 30C98.88 31.8519 92.62 34.3757 88.94 35.1037C88.832 35.1317 88.744 35.1677 88.64 35.1957C85.388 31.9879 80.932 30 76 30C66.06 30 58 38.0595 58 47.9989C58 48.5228 57.956 49.4868 58 49.9987C44.588 49.9987 34.38 42.9752 27.06 33.9998C26.264 35.9996 25.916 39.1594 25.916 42.1272C25.916 47.7309 30.296 53.2345 37.116 56.6463C35.86 56.9703 34.476 57.2023 33.036 57.2023C30.712 57.2023 28.252 56.5903 26 54.7345C26 54.8024 26 54.8664 26 54.9384C26 62.77 34.312 68.1016 41.704 69.5855C40.204 70.4695 37.18 70.5575 35.704 70.5575C34.664 70.5575 30.984 70.0815 30 69.8975C32.056 76.3171 39.472 79.9249 46.54 80.0529C41.012 84.3886 37.176 85.9965 25.856 85.9965H22C29.152 90.5802 38.26 94 47.388 94C77.108 94 94 71.3494 94 49.9987C94 49.6548 93.992 48.9348 93.98 48.2109C93.98 48.1389 94 48.0709 94 47.9989C94 47.8909 93.968 47.7869 93.968 47.6789C93.956 47.1349 93.944 46.627 93.932 46.363C97.092 44.0831 99.832 41.2393 102 37.9995C99.1 39.2874 95.988 40.1514 92.72 40.5433C96.056 38.5435 100.796 33.7758 102 30Z" fill="url(#paint1_linear_1_2157)"/>
</g>
<defs>
<linearGradient id="paint0_linear_1_2157" x1="62" y1="0" x2="62" y2="124" gradientUnits="userSpaceOnUse">
<stop stop-color="#605195"/>
<stop offset="1" stop-color="#E07785"/>
</linearGradient>
<linearGradient id="paint1_linear_1_2157" x1="62" y1="30" x2="62" y2="94" gradientUnits="userSpaceOnUse">
<stop stop-color="#605195"/>
<stop offset="1" stop-color="#E07785"/>
</linearGradient>
<clipPath id="clip0_1_2157">
<rect width="124" height="124" rx="62" fill="white"/>
</clipPath>
</defs>
</svg>
