<svg width="124" height="124" viewBox="0 0 124 124" fill="none" xmlns="http://www.w3.org/2000/svg">
<g clip-path="url(#clip0_1_2188)">
<rect width="124" height="124" fill="url(#paint0_linear_1_2188)"/>
<circle cx="62" cy="62" r="60.5" stroke="url(#paint1_linear_1_2188)" stroke-width="3"/>
<path d="M100.328 38.744C99.408 35.304 96.696 32.592 93.256 31.672C87.016 30 62 30 62 30C62 30 36.984 30 30.744 31.672C27.304 32.592 24.592 35.304 23.672 38.744C22 44.984 22 62 22 62C22 62 22 79.016 23.672 85.256C24.592 88.696 27.304 91.408 30.744 92.328C36.984 94 62 94 62 94C62 94 87.016 94 93.256 92.328C96.7 91.408 99.408 88.696 100.328 85.256C102 79.016 102 62 102 62C102 62 102 44.984 100.328 38.744ZM54 75.856V48.144L78 62L54 75.856Z" fill="#F9F6F6"/>
</g>
<defs>
<linearGradient id="paint0_linear_1_2188" x1="62" y1="0" x2="62" y2="124" gradientUnits="userSpaceOnUse">
<stop stop-color="#605195"/>
<stop offset="1" stop-color="#E07785"/>
</linearGradient>
<linearGradient id="paint1_linear_1_2188" x1="62" y1="0" x2="62" y2="124" gradientUnits="userSpaceOnUse">
<stop stop-color="#605195"/>
<stop offset="1" stop-color="#E07785"/>
</linearGradient>
<clipPath id="clip0_1_2188">
<rect width="124" height="124" rx="62" fill="white"/>
</clipPath>
</defs>
</svg>
